<?xml version="1.0" encoding="UTF-8"?>
<svg id="Ebene_2" data-name="Ebene 2" xmlns="http://www.w3.org/2000/svg" viewBox="0 0 837.58 1360.73">
  <defs>
    <style>
      .cls-1, .cls-2 {
        stroke-width: 0px;
      }

      .cls-2 {
        fill: #e8e8e8;
      }
    </style>
  </defs>
  <g id="Wandgrau">
    <g>
      <path class="cls-1" d="m797.39,651.58c2.42-1.41,4.09-2.26,5.64-3.3,2.25-1.53,4.2-1.57,6.63,0,8.13,5.22,16.4,10.21,24.65,15.24,1.99,1.21,2.82,3,3.1,5.17.51,3.92-.06,7.7-1.5,11.37-3.11,7.93-8.3,14.09-15.69,18.37-38.04,22.04-76.1,44.06-114.13,66.12-77.46,44.92-154.92,89.86-232.37,134.81-1.11.64-2.16,1.39-3.38,2.18v130.06c7.85,4.95,10.9,12.24,10.34,21.34-.2,3.2-.03,6.42-.03,9.9,3.82,2.14,7.58,4.26,11.36,6.34,62.74,34.64,125.48,69.27,188.22,103.9.99.54,1.98,1.08,2.96,1.63,5.48,3.1,7.97,7.78,6.97,13.07-1.15,6.04-6.15,11.12-11.82,11.98-2.81.42-5.33-.21-7.85-1.63-53.5-30.03-107.04-60.02-160.57-90-9.83-5.51-19.68-10.99-29.96-16.72-6.87,12.17-18.23,17.01-31.59,18.77-.74,5.25-1.5,10.31-2.17,15.39-5.61,42.79-11.2,85.58-16.81,128.36-4.19,31.93-8.38,63.86-12.59,95.79-.91,6.87-6.93,11.69-13.54,10.92-6.73-.78-11.53-6.65-10.67-13.65,2.02-16.46,4.25-32.9,6.42-49.34,3.07-23.31,6.15-46.61,9.23-69.92,3.41-25.86,6.83-51.72,10.23-77.58,1.89-14.37,3.75-28.74,5.61-43.11.08-.62.01-1.26.01-1.86-2.62-2.44-5.19-4.83-8.02-7.47-4.09,2.37-8.26,4.77-12.42,7.2-40.17,23.51-80.33,47.04-120.52,70.53-2.35,1.37-4.77,2.77-7.34,3.6-5.06,1.64-10.17.04-13.12-3.69-2.99-3.78-3.35-8.98-.42-13.55,1.14-1.79,3.06-3.27,4.93-4.38,32.28-19.14,64.61-38.19,96.92-57.27,15.12-8.93,30.18-17.94,45.37-26.74,2.71-1.57,4.05-3.21,3.76-6.44-.31-3.36.08-6.77-.13-10.14-.55-8.74,2.78-15.65,9.88-21.37v-106.4c-1.91,1.02-3.45,1.78-4.92,2.64-123.28,71.54-246.55,143.1-369.83,214.63-1.8,1.05-3.66,2.09-5.63,2.75-2.84.94-5.71.63-8.45-.71-7.09-3.46-14.22-6.85-21.29-10.34-4.88-2.41-7.47-6.44-7.95-11.84-.19-2.09-.27-4.19-.61-6.25-.55-3.32.75-5.49,3.57-7.19,8.28-4.98,16.39-10.26,24.78-15.05,3.4-1.94,4.46-4.19,4.43-8.02-.68-91.5-1.24-183.01-1.79-274.51-.63-104.23-1.24-208.46-1.86-312.69-.01-1.76,0-3.51,0-5.12-.6-.28-1-.59-1.12-.5-3.53,2.43-6.78,1.73-10.3-.32-5.56-3.24-11.29-6.21-17.04-9.1-3.62-1.82-4.99-4.44-4.9-8.51.2-8.78,2.04-16.96,7.58-23.95,1.57-1.97,3.47-3.9,5.63-5.16,25.05-14.59,50.2-29.01,75.28-43.54,164.02-95.03,328.04-190.07,492.05-285.11,68-39.4,136.04-78.76,203.98-118.27,6.76-3.93,13.1-3.79,19.6-.07,6.01,3.43,12.02,6.9,17.85,10.62,1.66,1.06,3,2.89,4,4.65,2.33,4.08,2.39,8.64,1.96,13.17-.27,2.81-2.15,4.51-4.52,5.86-7.83,4.48-15.5,9.25-23.46,13.48-3.38,1.8-4.26,3.96-4.25,7.61.36,87.48.6,174.96.84,262.43.29,108.1.55,216.2.83,324.3,0,1.9,0,3.79,0,6.64ZM41.22,491.32c1.28,204.51,2.56,408.58,3.85,612.65,0,.12.16.25.27.34.12.1.28.15.66.34,1.55-.86,3.24-1.77,4.9-2.73,244.12-142.07,488.25-284.14,732.35-426.24,7.18-4.18,6.01-1.9,5.99-10.35-.32-139.49-.69-278.98-1.04-418.48-.15-60.89-.29-121.77-.45-182.66,0-1.85-.14-3.69-.24-6.23C538.33,202.66,289.91,346.91,41.22,491.32ZM809.51,15.43c-3.82-2.28-6.95-4.21-10.12-6.04-3.48-2.01-6.92-2.33-10.36.28-1.4,1.06-3.06,1.77-4.59,2.66-112.04,64.92-224.07,129.83-336.11,194.75-142.97,82.84-285.93,165.7-428.96,248.43-5,2.89-8.2,6.74-9.64,12.02-.92,3.37-1.1,6.97-1.35,10.49-.06.89.66,2.26,1.43,2.71,4,2.33,8.14,4.42,12.29,6.63.41-.76.79-1.15.84-1.59,1.21-10.61,7.63-17.28,16.45-22.39,36.66-21.22,73.25-42.55,109.86-63.85,218.43-127.04,436.87-254.07,655.3-381.12,1.48-.86,2.94-1.77,4.97-3ZM30.89,488C294.42,334.98,557.27,182.36,819.96,29.82c.15-3.57.24-6.59-2.48-9.29-2.1,1.13-4.23,2.19-6.28,3.38C557.14,171.65,303.09,319.4,49.04,467.16c-3.62,2.1-7.24,4.22-10.72,6.53-4.66,3.09-7.61,7.26-7.43,14.31Zm4.55,646.24c.46,1.77.64,2.89,1.04,3.92,1.53,3.88,2.46,4.21,6,2.15,73.27-42.5,146.54-85.01,219.8-127.52,76.05-44.13,152.1-88.26,228.14-132.4,78.97-45.83,157.94-91.67,236.91-137.51,29.8-17.3,59.62-34.58,89.42-51.88,5.2-3.02,8.82-7.45,11.17-12.93.4-.92.45-1.99.85-3.87-264.87,153.59-528.96,306.73-793.33,460.02Zm789.09-467.03c-4.53-2.9-8.39-5.41-12.29-7.86-5.97-3.75-5.92-3.63-11.8-.02-2.21,1.35-3.19,2.9-2.97,5.46.2,2.24-.04,4.52.13,6.76.24,3.28-1.26,5.56-3.83,7.28-1.2.8-2.48,1.5-3.73,2.23-41.62,24.22-83.24,48.43-124.86,72.65-205.16,119.4-410.32,238.8-615.49,358.2-1.11.65-2.2,1.38-3.38,1.87-4.99,2.06-8.98-.48-9.29-5.84-.05-.88-.19-1.76-.37-3.34-7.14,4.38-13.76,8.44-21.08,12.92,3.7,2.16,6.53,3.93,9.46,5.51,8.49,4.6,5.28,4.79,13.67-.07,154.8-89.72,309.57-179.48,464.34-269.24,105.04-60.91,210.09-121.82,315.13-182.73,1.9-1.1,3.78-2.26,6.36-3.81Zm-393.19,256.73c0,2.32,0,4.24,0,6.16-.18,34.11-.37,68.22-.55,102.33-.02,4.02-.08,8.05-.03,12.07.07,5.73,2.39,9.02,7.83,10.77,6.74,2.16,13.07,1.02,18.8-3.03,3.17-2.24,4.8-5.19,4.79-9.4-.08-44.09.01-88.18.04-132.26,0-1.19-.23-2.37-.43-4.25-10.4,6.02-20.24,11.72-30.44,17.62Zm49.53,158.53c1.94,1.18,3.82,2.41,5.78,3.51,52.64,29.49,105.28,58.97,157.92,88.45,3.23,1.81,6.53,3.5,9.7,5.4,2.14,1.29,3.54.69,4.9-1.15,3.33-4.49,2.9-6.56-2.11-9.33-57.19-31.57-114.38-63.14-171.57-94.7-1.36-.75-2.79-1.4-4.62-2.32v10.12Zm-76.52,235.33c-.01.15-.06.47-.05.79.06,2.51,1.61,4.33,3.97,4.66,2.37.33,3.91-1,4.49-3.9.09-.47.12-.96.18-1.44,4.3-32.87,8.58-65.74,12.9-98.61,5.51-41.96,11.06-83.91,16.58-125.87.13-.95.37-1.95.2-2.86-.38-2.03-1.44-3.66-3.73-3.83-2.22-.16-3.71,1-4.31,3.09-.4,1.38-.59,2.84-.78,4.27-1.64,12.28-3.26,24.56-4.88,36.85-3.34,25.37-6.67,50.74-10.02,76.1-3.43,26.01-6.86,52.01-10.28,78.02-1.43,10.85-2.83,21.7-4.27,32.72Zm-113.78-156.04c40.96-23.98,81.74-47.85,122.22-71.55v-9.37c-1.56.81-2.7,1.33-3.77,1.96-39.35,23.23-78.7,46.46-118.04,69.71-4.78,2.82-4.93,4.68-.41,9.24Zm158.98-60.27c8.75-1.03,15.85-3.92,20.89-10.59,1.16-1.54,1.77-3.8,1.87-5.77.26-5.14.13-10.29.1-15.44,0-1.02-.24-2.04-.45-3.7-7.7,5.94-15.83,9.12-24.82,9.87-9,.76-17.5-1.04-25.75-6.32,0,6.86-.22,12.9.11,18.91.13,2.38,1.24,4.87,4.12,6.49.28-2.49.44-4.56.77-6.6.2-1.24.42-2.58,1.05-3.62,3-4.92,9.95-7.38,15.23-5.54,5.46,1.91,8.69,7.59,7.88,13.82-.34,2.66-.63,5.32-1,8.47Zm-27.24-51.43c-1.92,5.61,0,9.72,4.21,12.9,1.39,1.05,2.96,1.99,4.6,2.58,12.64,4.56,24.39,2.67,34.93-5.54,2.29-1.79,4.08-4.57,5.33-7.26,1.31-2.8,1.58-6.01-.86-9.02-1.43,10.62-7.92,17.29-19.01,19.89-5.63,1.32-11.14,1.02-16.57-1.03-6.03-2.29-10.01-6.64-12.64-12.53Zm-19.59,280.45c-.75,5.75-1.62,11.41-2.17,17.1-.27,2.77,1.37,4.62,3.56,4.87,2.21.24,4.24-1.16,4.69-3.89.91-5.49,1.5-11.03,2.24-16.72-2.88-.47-5.36-.87-8.31-1.36Zm261.92-144.89c3.5,1.93,6.65,3.83,9.94,5.44,2.58,1.26,5.31.06,6.78-2.65,1.42-2.63.94-4.85-1.79-6.53-3.21-1.98-6.59-3.7-9.97-5.58-1.73,3.24-3.21,6.02-4.96,9.32Zm-384.97-26.43c-3.36,2.03-6.45,3.74-9.36,5.71-1.72,1.17-2.61,3.01-1.36,5.03,1.18,1.92,3.27,2.32,5.1,1.42,3.14-1.53,6.07-3.48,9.16-5.31-1.23-2.38-2.25-4.34-3.55-6.85Zm-267.75-33.52c1.09,1.83,1.54,3.13,2.43,3.99,1.93,1.86,11.51,5.62,13.58,5.58-1.93-2.63-9.26-7.13-16.01-9.57Z"/>
      <path class="cls-2" d="m41.22,491.32C289.91,346.91,538.33,202.66,787.52,57.97c.1,2.53.24,4.38.24,6.23.16,60.89.29,121.77.45,182.66.35,139.49.71,278.98,1.04,418.48.02,8.44,1.19,6.17-5.99,10.35-244.1,142.1-488.23,284.17-732.35,426.24-1.66.96-3.35,1.87-4.9,2.73-.37-.19-.53-.24-.66-.34-.11-.09-.27-.22-.27-.34-1.29-204.07-2.57-408.14-3.85-612.65Zm25.71,292.38h-.79c0,92.78,0,185.57-.01,278.35,0,2.25-.26,4.5-.24,6.75.03,3.46,2.29,5.34,5.67,4.63,1.37-.29,2.72-.93,3.95-1.63,6.69-3.85,13.33-7.77,19.99-11.67,9.85-5.77,19.66-11.62,29.57-17.3,11.58-6.63,23.27-13.08,34.89-19.64,6.02-3.39,11.99-6.86,18-10.28,10.63-6.05,21.3-12.03,31.9-18.13,10.02-5.77,19.94-11.74,29.98-17.48,12.14-6.95,24.4-13.7,36.55-20.64,8.93-5.11,17.71-10.48,26.64-15.6,15.06-8.64,30.17-17.18,45.28-25.73,12.18-6.89,24.42-13.66,36.57-20.62,10.59-6.07,21.04-12.4,31.64-18.47,11.72-6.71,23.57-13.19,35.31-19.87,11.46-6.51,22.86-13.13,34.27-19.72,6.82-3.94,13.58-7.98,20.43-11.87,12.03-6.83,24.13-13.52,36.14-20.39,8.93-5.1,17.7-10.46,26.63-15.57,11.16-6.38,22.43-12.59,33.61-18.93,5.87-3.33,11.65-6.82,17.52-10.15,11.19-6.35,22.45-12.58,33.61-18.97,9.76-5.59,19.39-11.41,29.15-16.99,10.61-6.07,21.33-11.93,31.95-17.97,14.11-8.04,28.16-16.18,42.24-24.25,2.51-1.44,5.18-2.61,7.63-4.15,3.83-2.41,6.77-5.34,5.82-10.57-.42-2.34-.13-4.82-.13-7.24-.04-184.76-.07-369.53-.11-554.29,0-1.61.07-3.23-.04-4.83-.25-3.49-1.22-4.4-4.55-5.12-3.01-.66-5.6-.16-8.25,1.48-6.56,4.06-13.23,7.94-19.93,11.78-11.87,6.8-23.82,13.44-35.66,20.28-9.18,5.3-18.21,10.87-27.38,16.17-11.28,6.51-22.68,12.81-33.96,19.32-10.17,5.87-20.2,11.96-30.36,17.85-15.99,9.27-32.04,18.44-48.07,27.65-8.78,5.05-17.56,10.12-26.35,15.15-3.49,2-7.08,3.82-10.56,5.85-9.71,5.67-19.33,11.49-29.07,17.11-11.98,6.91-24.08,13.61-36.06,20.52-9.05,5.22-17.94,10.71-26.99,15.93-11.84,6.83-23.79,13.46-35.63,20.29-9.75,5.63-19.37,11.49-29.12,17.12-10.86,6.27-21.82,12.37-32.7,18.61-5.86,3.36-11.62,6.88-17.46,10.25-4.46,2.58-9,5.01-13.46,7.58-9.2,5.3-18.35,10.67-27.55,15.96-5.16,2.97-10.43,5.76-15.57,8.76-10.83,6.32-21.56,12.79-32.41,19.06-11,6.35-22.15,12.46-33.15,18.82-9.6,5.54-19.04,11.36-28.64,16.91-11.42,6.6-22.97,12.97-34.39,19.56-9.88,5.71-19.6,11.7-29.5,17.36-11.02,6.3-22.18,12.36-33.29,18.51-2.12,1.17-3.46,2.83-3.49,5.36-.02,1.77-.04,3.54-.04,5.32,0,93.27,0,186.53,0,279.8Z"/>
      <path class="cls-2" d="m809.51,15.43c-2.04,1.23-3.49,2.14-4.97,3-218.43,127.04-436.87,254.08-655.3,381.12-36.61,21.29-73.21,42.63-109.86,63.85-8.83,5.11-15.24,11.78-16.45,22.39-.05.43-.43.83-.84,1.59-4.15-2.21-8.28-4.31-12.29-6.63-.77-.45-1.49-1.82-1.43-2.71.24-3.52.42-7.12,1.35-10.49,1.44-5.28,4.64-9.12,9.64-12.02,143.03-82.73,285.99-165.59,428.96-248.43,112.04-64.92,224.07-129.83,336.11-194.75,1.53-.89,3.2-1.6,4.59-2.66,3.44-2.61,6.87-2.29,10.36-.28,3.18,1.83,6.3,3.75,10.12,6.04Z"/>
      <path class="cls-2" d="m30.89,488c-.18-7.05,2.77-11.22,7.43-14.31,3.48-2.31,7.11-4.43,10.72-6.53C303.09,319.4,557.14,171.65,811.2,23.91c2.05-1.19,4.18-2.25,6.28-3.38,2.72,2.7,2.63,5.72,2.48,9.29C557.27,182.36,294.42,334.98,30.89,488Z"/>
      <path class="cls-2" d="m35.44,1134.25c264.37-153.3,528.46-306.44,793.33-460.02-.4,1.87-.45,2.94-.85,3.87-2.35,5.48-5.97,9.91-11.17,12.93-29.8,17.3-59.61,34.58-89.42,51.88-78.97,45.83-157.94,91.67-236.91,137.51-76.05,44.14-152.09,88.27-228.14,132.4-73.26,42.51-146.53,85.01-219.8,127.52-3.54,2.05-4.48,1.73-6-2.15-.41-1.03-.58-2.15-1.04-3.92Z"/>
      <path class="cls-2" d="m824.53,667.22c-2.58,1.55-4.46,2.71-6.36,3.81-105.04,60.91-210.09,121.82-315.13,182.73-154.78,89.75-309.55,179.52-464.34,269.24-8.39,4.86-5.17,4.67-13.67.07-2.93-1.59-5.76-3.35-9.46-5.51,7.32-4.49,13.93-8.54,21.08-12.92.18,1.57.32,2.45.37,3.34.32,5.36,4.3,7.9,9.29,5.84,1.18-.49,2.26-1.22,3.38-1.87,205.16-119.4,410.33-238.8,615.49-358.2,41.62-24.22,83.24-48.43,124.86-72.65,1.25-.73,2.53-1.43,3.73-2.23,2.58-1.72,4.07-4,3.83-7.28-.16-2.24.07-4.52-.13-6.76-.23-2.57.76-4.11,2.97-5.46,5.89-3.61,5.83-3.73,11.8.02,3.9,2.45,7.76,4.96,12.29,7.86Z"/>
      <path class="cls-2" d="m431.34,923.95c10.2-5.9,20.04-11.6,30.44-17.62.2,1.88.43,3.06.43,4.25-.03,44.09-.12,88.18-.04,132.26,0,4.22-1.62,7.16-4.79,9.4-5.73,4.05-12.06,5.19-18.8,3.03-5.44-1.75-7.77-5.03-7.83-10.77-.05-4.02.01-8.04.03-12.07.18-34.11.37-68.22.55-102.33.01-1.92,0-3.84,0-6.16Z"/>
      <path class="cls-2" d="m480.88,1082.48v-10.12c1.83.92,3.25,1.56,4.62,2.32,57.19,31.56,114.38,63.13,171.57,94.7,5.01,2.77,5.43,4.83,2.11,9.33-1.36,1.83-2.76,2.44-4.9,1.15-3.17-1.91-6.47-3.6-9.7-5.4-52.64-29.48-105.29-58.96-157.92-88.45-1.96-1.1-3.84-2.33-5.78-3.51Z"/>
      <path class="cls-2" d="m404.36,1317.82c1.44-11.02,2.85-21.87,4.27-32.72,3.42-26.01,6.86-52.01,10.28-78.02,3.34-25.37,6.67-50.74,10.02-76.1,1.62-12.28,3.24-24.57,4.88-36.85.19-1.43.38-2.88.78-4.27.6-2.1,2.09-3.26,4.31-3.09,2.29.17,3.35,1.79,3.73,3.83.17.91-.08,1.91-.2,2.86-5.52,41.96-11.07,83.91-16.58,125.87-4.32,32.87-8.6,65.74-12.9,98.61-.06.48-.09.96-.18,1.44-.58,2.89-2.12,4.23-4.49,3.9-2.36-.33-3.91-2.15-3.97-4.66,0-.32.04-.64.05-.79Z"/>
      <path class="cls-2" d="m290.58,1161.78c-4.51-4.56-4.37-6.42.41-9.24,39.34-23.25,78.69-46.48,118.04-69.71,1.07-.63,2.21-1.16,3.77-1.96v9.37c-40.48,23.7-81.26,47.57-122.22,71.55Z"/>
      <path class="cls-2" d="m449.56,1101.51c.37-3.15.66-5.81,1-8.47.81-6.24-2.42-11.91-7.88-13.82-5.28-1.84-12.23.61-15.23,5.54-.63,1.04-.85,2.39-1.05,3.62-.33,2.04-.49,4.11-.77,6.6-2.88-1.62-3.99-4.11-4.12-6.49-.34-6.01-.11-12.05-.11-18.91,8.25,5.27,16.75,7.07,25.75,6.32,8.99-.76,17.12-3.94,24.82-9.87.21,1.66.45,2.68.45,3.7.03,5.15.16,10.3-.1,15.44-.1,1.97-.71,4.23-1.87,5.77-5.04,6.68-12.13,9.56-20.89,10.59Z"/>
      <path class="cls-2" d="m422.31,1050.08c2.63,5.88,6.61,10.24,12.64,12.53,5.42,2.06,10.94,2.35,16.57,1.03,11.09-2.59,17.58-9.26,19.01-19.89,2.44,3,2.17,6.22.86,9.02-1.26,2.68-3.04,5.47-5.33,7.26-10.54,8.21-22.29,10.1-34.93,5.54-1.63-.59-3.2-1.53-4.6-2.58-4.22-3.18-6.13-7.29-4.21-12.9Z"/>
      <path class="cls-2" d="m402.72,1330.53c2.95.48,5.44.89,8.31,1.36-.74,5.69-1.33,11.23-2.24,16.72-.45,2.73-2.48,4.13-4.69,3.89-2.19-.24-3.83-2.1-3.56-4.87.55-5.69,1.42-11.35,2.17-17.1Z"/>
      <path class="cls-2" d="m664.64,1185.64c1.75-3.29,3.24-6.08,4.96-9.32,3.38,1.88,6.76,3.6,9.97,5.58,2.73,1.68,3.21,3.9,1.79,6.53-1.46,2.71-4.2,3.92-6.78,2.65-3.29-1.61-6.44-3.51-9.94-5.44Z"/>
      <path class="cls-2" d="m279.67,1159.2c1.3,2.51,2.32,4.47,3.55,6.85-3.1,1.82-6.03,3.77-9.16,5.31-1.83.9-3.92.5-5.1-1.42-1.24-2.02-.36-3.86,1.36-5.03,2.91-1.97,6-3.68,9.36-5.71Z"/>
      <path class="cls-2" d="m11.92,1125.68c6.75,2.45,14.08,6.95,16.01,9.57-2.07.04-11.65-3.73-13.58-5.58-.89-.85-1.35-2.16-2.43-3.99Z"/>
      <path class="cls-1" d="m66.93,783.7c0-93.27,0-186.53,0-279.8,0-1.77.02-3.54.04-5.32.02-2.53,1.37-4.18,3.49-5.36,11.1-6.15,22.26-12.22,33.29-18.51,9.91-5.66,19.62-11.65,29.5-17.36,11.42-6.59,22.97-12.96,34.39-19.56,9.6-5.55,19.04-11.37,28.64-16.91,11-6.35,22.15-12.46,33.15-18.82,10.85-6.27,21.59-12.75,32.41-19.06,5.14-3,10.41-5.79,15.57-8.76,9.2-5.29,18.35-10.66,27.55-15.96,4.46-2.57,9.01-5,13.46-7.58,5.84-3.38,11.61-6.9,17.46-10.25,10.88-6.24,21.84-12.33,32.7-18.61,9.75-5.63,19.37-11.49,29.12-17.12,11.84-6.83,23.79-13.46,35.63-20.29,9.05-5.22,17.94-10.71,26.99-15.93,11.98-6.91,24.08-13.61,36.06-20.52,9.74-5.62,19.37-11.43,29.07-17.11,3.47-2.03,7.06-3.86,10.56-5.85,8.8-5.03,17.57-10.1,26.35-15.15,16.02-9.21,32.07-18.39,48.07-27.65,10.16-5.88,20.19-11.98,30.36-17.85,11.28-6.51,22.68-12.81,33.96-19.32,9.18-5.3,18.2-10.88,27.38-16.17,11.84-6.84,23.8-13.48,35.66-20.28,6.7-3.84,13.37-7.72,19.93-11.78,2.66-1.64,5.25-2.14,8.25-1.48,3.32.73,4.3,1.63,4.55,5.12.12,1.6.04,3.22.04,4.83.04,184.76.07,369.53.11,554.29,0,2.42-.29,4.89.13,7.24.95,5.23-1.99,8.16-5.82,10.57-2.44,1.54-5.12,2.71-7.63,4.15-14.09,8.07-28.14,16.21-42.24,24.25-10.62,6.05-21.34,11.91-31.95,17.97-9.76,5.58-19.39,11.41-29.15,16.99-11.16,6.39-22.43,12.62-33.61,18.97-5.87,3.33-11.65,6.83-17.52,10.15-11.19,6.34-22.45,12.55-33.61,18.93-8.93,5.1-17.7,10.46-26.63,15.57-12.01,6.86-24.11,13.55-36.14,20.39-6.85,3.89-13.61,7.93-20.43,11.87-11.41,6.59-22.81,13.21-34.27,19.72-11.74,6.67-23.59,13.16-35.31,19.87-10.6,6.06-21.04,12.4-31.64,18.47-12.14,6.96-24.39,13.73-36.57,20.62-15.11,8.55-30.22,17.1-45.28,25.73-8.93,5.12-17.71,10.49-26.64,15.6-12.14,6.95-24.4,13.69-36.55,20.64-10.04,5.75-19.95,11.71-29.98,17.48-10.6,6.1-21.27,12.08-31.9,18.13-6.01,3.42-11.98,6.88-18,10.28-11.62,6.56-23.31,13.01-34.89,19.64-9.91,5.67-19.72,11.52-29.57,17.3-6.66,3.9-13.31,7.82-19.99,11.67-1.23.71-2.58,1.35-3.95,1.63-3.38.71-5.64-1.17-5.67-4.63-.02-2.25.24-4.5.24-6.75.01-92.78.01-185.57.01-278.35h.79ZM762.39,104.11c-1.59.86-2.27,1.2-2.93,1.58-7.35,4.31-14.67,8.68-22.06,12.93-12.13,6.96-24.32,13.83-36.48,20.76-5.3,3.02-10.56,6.12-15.86,9.16-10.75,6.17-21.54,12.27-32.25,18.49-10,5.81-19.89,11.82-29.91,17.61-11.84,6.84-23.79,13.47-35.63,20.3-9.05,5.22-17.94,10.7-26.99,15.92-11.28,6.51-22.69,12.81-33.98,19.3-13.38,7.69-26.7,15.49-40.06,23.22-3.34,1.93-6.8,3.68-10.13,5.63-10.26,6.01-20.45,12.15-30.74,18.1-11.29,6.53-22.7,12.83-33.99,19.35-9.6,5.54-19.06,11.32-28.66,16.86-11,6.35-22.12,12.49-33.12,18.85-10.3,5.96-20.46,12.16-30.76,18.11-11.84,6.84-23.79,13.47-35.65,20.28-12.82,7.37-25.58,14.85-38.39,22.25-3.2,1.85-6.53,3.5-9.72,5.37-10.54,6.16-21.01,12.45-31.59,18.56-11.28,6.52-22.68,12.83-33.96,19.35-9.46,5.47-18.77,11.19-28.23,16.65-11.98,6.91-24.06,13.65-36.07,20.51-5.59,3.19-11.13,6.47-16.68,9.74-4.56,2.68-9.09,5.41-13.85,8.24v560.9c2.55-1.32,4.68-2.3,6.7-3.47,9.86-5.74,19.65-11.59,29.54-17.28,13.65-7.87,27.38-15.61,41.06-23.43,15.63-8.94,31.25-17.9,46.88-26.84,14.1-8.06,28.22-16.1,42.32-24.16,15.21-8.7,30.4-17.42,45.61-26.12,14.37-8.22,28.76-16.43,43.15-24.62,11.04-6.29,22.11-12.52,33.15-18.82,5.44-3.11,10.79-6.38,16.25-9.47,11.89-6.74,23.86-13.34,35.73-20.13,9.2-5.26,18.25-10.79,27.45-16.06,11.16-6.39,22.45-12.55,33.62-18.93,10.33-5.9,20.53-12,30.85-17.91,11.02-6.31,22.13-12.48,33.17-18.76,5.59-3.18,11.07-6.54,16.66-9.71,11.89-6.74,23.86-13.35,35.73-20.14,9.07-5.18,17.98-10.64,27.04-15.82,11.3-6.46,22.73-12.72,34.03-19.17,10.47-5.98,20.81-12.16,31.27-18.15,10.74-6.15,21.56-12.17,32.34-18.26,7.28-4.11,14.56-8.21,21.8-12.38,7.93-4.57,15.81-9.21,23.35-13.6V104.11Z"/>
      <path class="cls-2" d="m762.39,104.11v564.78c-7.54,4.4-15.42,9.04-23.35,13.6-7.24,4.17-14.53,8.27-21.8,12.38-10.78,6.09-21.6,12.1-32.34,18.26-10.46,5.99-20.81,12.17-31.27,18.15-11.31,6.46-22.73,12.71-34.03,19.17-9.06,5.18-17.98,10.64-27.04,15.82-11.87,6.79-23.83,13.39-35.73,20.14-5.59,3.17-11.08,6.53-16.66,9.71-11.04,6.28-22.15,12.45-33.17,18.76-10.32,5.91-20.52,12.02-30.85,17.91-11.17,6.38-22.45,12.55-33.62,18.93-9.2,5.26-18.25,10.79-27.45,16.06-11.87,6.78-23.84,13.39-35.73,20.13-5.45,3.09-10.8,6.36-16.25,9.47-11.03,6.3-22.1,12.53-33.15,18.82-14.39,8.19-28.77,16.4-43.15,24.62-15.21,8.7-30.4,17.42-45.61,26.12-14.1,8.06-28.22,16.1-42.32,24.16-15.63,8.94-31.25,17.91-46.88,26.84-13.68,7.82-27.4,15.57-41.06,23.43-9.88,5.69-19.68,11.55-29.54,17.28-2.02,1.17-4.15,2.16-6.7,3.47V501.21c4.76-2.83,9.29-5.56,13.85-8.24,5.55-3.27,11.09-6.55,16.68-9.74,12.01-6.86,24.09-13.6,36.07-20.51,9.46-5.46,18.77-11.19,28.23-16.65,11.28-6.52,22.68-12.83,33.96-19.35,10.57-6.11,21.04-12.4,31.59-18.56,3.19-1.87,6.52-3.52,9.72-5.37,12.81-7.4,25.56-14.88,38.39-22.25,11.85-6.81,23.81-13.44,35.65-20.28,10.3-5.95,20.46-12.15,30.76-18.11,11-6.36,22.12-12.5,33.12-18.85,9.6-5.54,19.06-11.32,28.66-16.86,11.29-6.52,22.7-12.83,33.99-19.35,10.29-5.95,20.48-12.09,30.74-18.1,3.33-1.95,6.78-3.69,10.13-5.63,13.36-7.72,26.68-15.53,40.06-23.22,11.3-6.49,22.7-12.79,33.98-19.3,9.05-5.22,17.95-10.7,26.99-15.92,11.84-6.83,23.79-13.47,35.63-20.3,10.02-5.79,19.91-11.79,29.91-17.61,10.72-6.22,21.51-12.32,32.25-18.49,5.29-3.04,10.55-6.13,15.86-9.16,12.15-6.93,24.34-13.79,36.48-20.76,7.39-4.24,14.71-8.62,22.06-12.93.66-.39,1.34-.73,2.93-1.58Z"/>
    </g>
  </g>
</svg>