<svg xmlns="http://www.w3.org/2000/svg" direction="ltr" width="38988.50263807745" height="22346.16806835957" viewBox="-20343.22865417847 -7628.318040344209 38988.50263807745 22346.16806835957" stroke-linecap="round" stroke-linejoin="round" data-color-mode="light" class="tl-container tl-theme__force-sRGB tl-theme__light" style="background-color: transparent;"><defs/><g transform="matrix(1, 0, 0, 1, -20327.2287, -7612.318)" opacity="1"><path fill="#eceef0" d="M19484.3254,3.4792 L38950.4285,11153.6048 Q38956.5026,11157.084 38950.4285,11160.5633 L19484.3254,22310.6888 Q19478.2513,22314.1681 19472.1772,22310.6888 L6.0741,11160.5633 Q0,11157.084 6.0741,11153.6048 L19472.1772,3.4792 Q19478.2513,0 19484.3254,3.4792 "/><path d="M19484.3257,3.4789 L38951.5207,11152.6214 Q38957.5951,11156.1003 38951.5211,11159.5797 L19484.5562,22310.9816 Q19478.4822,22314.461 19472.4082,22310.9816 L4.9083,11159.5581 Q-1.1658,11156.0787 4.9086,11152.6 L19472.5137,3.7649 Q19478.5881,0.2862 19484.6622,3.7655 L38951.2402,11154.3747 Q38957.3143,11157.8539 38951.2399,11161.3328 L19484.0719,22310.3122 Q19477.9975,22313.791 19471.9232,22310.3121 L5.92,11161.6716 Q-0.1543,11158.1927 5.9197,11154.7133 L19471.3063,4.3837 Q19477.3803,0.9043 19484.3257,3.4789 " stroke="rgb(0, 0, 0)" stroke-width="3.5" fill="none"/></g></svg>